<?xml version="1.0" standalone="no"?><!DOCTYPE svg PUBLIC "-//W3C//DTD SVG 1.1//EN" "http://www.w3.org/Graphics/SVG/1.1/DTD/svg11.dtd"><svg t="1559783139966" class="icon" style="" viewBox="0 0 1024 1024" version="1.1" xmlns="http://www.w3.org/2000/svg" p-id="6955" xmlns:xlink="http://www.w3.org/1999/xlink" width="320" height="320"><defs><style type="text/css"></style></defs><path d="M802.8 870H293.1c-75.7 0-137.2-61.5-137.2-137.2V223.1c0-75.7 61.6-137.2 137.2-137.2h509.7c75.7 0 137.2 61.5 137.2 137.2v509.7c0 75.7-61.6 137.2-137.2 137.2zM293.1 140.8c-45.4 0-82.3 36.9-82.3 82.3v509.7c0 45.4 36.9 82.3 82.3 82.3h509.7c45.4 0 82.3-36.9 82.3-82.3V223.1c0-45.4-36.9-82.3-82.3-82.3H293.1z" fill="#dbdbdb" p-id="6956"></path><path d="M408.7 444.9c-66.2 0-120.1-53.9-120.1-120.1s53.9-120.1 120.1-120.1c66.3 0 120.2 53.9 120.2 120.1s-54 120.1-120.2 120.1z m0-185.3c-36 0-65.2 29.3-65.2 65.2s29.3 65.2 65.2 65.2c36 0 65.3-29.3 65.3-65.2s-29.3-65.2-65.3-65.2zM817 282.6H616.7c-13.8 0-25-11.3-25-25v-5.1c0-13.8 11.3-25 25-25H817c13.8 0 25 11.3 25 25v5.1c0 13.7-11.3 25-25 25zM817 417.5H616.7c-13.8 0-25-11.3-25-25v-5.1c0-13.8 11.3-25 25-25H817c13.8 0 25 11.3 25 25v5.1c0 13.7-11.3 25-25 25zM814.4 594.2H323.1c-15.2 0-27.6-12.4-27.6-27.6 0-15.2 12.4-27.6 27.6-27.6h491.3c15.2 0 27.6 12.4 27.6 27.6 0 15.1-12.4 27.6-27.6 27.6zM814.4 724.5H323.1c-15.2 0-27.6-12.4-27.6-27.6 0-15.2 12.4-27.6 27.6-27.6h491.3c15.2 0 27.6 12.4 27.6 27.6 0 15.2-12.4 27.6-27.6 27.6z" fill="#dbdbdb" p-id="6957"></path></svg>