<?xml version="1.0" standalone="no"?><!DOCTYPE svg PUBLIC "-//W3C//DTD SVG 1.1//EN" "http://www.w3.org/Graphics/SVG/1.1/DTD/svg11.dtd"><svg t="1562553225026" class="icon" viewBox="0 0 1024 1024" version="1.1" xmlns="http://www.w3.org/2000/svg" p-id="2128" xmlns:xlink="http://www.w3.org/1999/xlink" width="200" height="200"><defs><style type="text/css"></style></defs><path d="M160.18 255.94h703.64v512.12H160.18V255.94m-32-20v552.12a12 12 0 0 0 12 12h743.64a12 12 0 0 0 12-12V235.94a12 12 0 0 0-12-12H140.18a12 12 0 0 0-12 12z" fill="#dbdbdb" p-id="2129"></path><path d="M762 727.54H262a16 16 0 0 1 0-32h500a16 16 0 0 1 0 32zM762 618.54H262a16 16 0 0 1 0-32h500a16 16 0 0 1 0 32z" fill="#dbdbdb" p-id="2130"></path><path d="M762 618.54H262a16 16 0 0 1 0-32h500a16 16 0 0 1 0 32zM762 509.54H262a16 16 0 1 1 0-32h500a16 16 0 0 1 0 32z" fill="#dbdbdb" p-id="2131"></path><path d="M762 509.54H262a16 16 0 1 1 0-32h500a16 16 0 0 1 0 32z" fill="#dbdbdb" p-id="2132"></path><path d="M761.94 374.29H502a16 16 0 0 1 0-32h260a16 16 0 0 1 0 32zM402 429.29H292a46 46 0 0 1-46-46v-50a46.05 46.05 0 0 1 46-46h110a46.06 46.06 0 0 1 46 46v50a46.05 46.05 0 0 1-46 46z m-110-110a14 14 0 0 0-14 14v50a14 14 0 0 0 14 14h110a14 14 0 0 0 14-14v-50a14 14 0 0 0-14-14z" fill="#dbdbdb" p-id="2133"></path></svg>