<?xml version="1.0" standalone="no"?><!DOCTYPE svg PUBLIC "-//W3C//DTD SVG 1.1//EN" "http://www.w3.org/Graphics/SVG/1.1/DTD/svg11.dtd"><svg t="1561616774277" class="icon" viewBox="0 0 1024 1024" version="1.1" xmlns="http://www.w3.org/2000/svg" p-id="3432" xmlns:xlink="http://www.w3.org/1999/xlink" width="200" height="200"><defs><style type="text/css"></style></defs><path d="M329.08 866.34a74.24 74.24 0 0 1-73.91-74V245.51A88 88 0 0 1 343 157.64h338a88 88 0 0 1 87.87 87.87v546.78a73.92 73.92 0 0 1-111.27 63.78L513.92 772l-147.47 84a73.93 73.93 0 0 1-37.37 10.34zM512 701.41a72.94 72.94 0 0 1 37.36 10.2l143.64 84a3.52 3.52 0 0 0 3.83 0.07l1.92-550.14A17.84 17.84 0 0 0 681 227.72H343a17.84 17.84 0 0 0-17.79 17.79v546.78l149.39-80.75a73.54 73.54 0 0 1 37.4-10.13z" fill="#dbdbdb" p-id="3433"></path></svg>